<svg width="24" height="24" viewBox="0 0 24 24" fill="none" xmlns="http://www.w3.org/2000/svg">
<path fill-rule="evenodd" clip-rule="evenodd" d="M12 4C7.58172 4 4 7.58172 4 12C4 16.4183 7.58172 20 12 20C16.4183 20 20 16.4183 20 12C20 7.58172 16.4183 4 12 4ZM9.78361 8.30602C9.37559 7.89799 8.71405 7.89799 8.30602 8.30602C7.89799 8.71404 7.89799 9.37558 8.30602 9.7836L10.5225 12.0001L8.30602 14.2166C7.89799 14.6246 7.89799 15.2862 8.30602 15.6942C8.71405 16.1022 9.37559 16.1022 9.78361 15.6942L12.0001 13.4777L14.2164 15.6939C14.6244 16.1019 15.286 16.1019 15.694 15.6939C16.102 15.2859 16.102 14.6244 15.694 14.2163L13.4777 12.0001L15.694 9.78385C16.102 9.37583 16.102 8.7143 15.694 8.30627C15.286 7.89825 14.6244 7.89825 14.2164 8.30627L12.0001 10.5225L9.78361 8.30602Z" fill="#505050"/>
</svg>
