<svg width="24" height="24" viewBox="0 0 24 24" fill="none" xmlns="http://www.w3.org/2000/svg">
<path fill-rule="evenodd" clip-rule="evenodd" d="M6.34313 6.34315C3.21894 9.46734 3.21894 14.5327 6.34313 17.6569C9.46733 20.781 14.5326 20.781 17.6568 17.6569C20.781 14.5327 20.781 9.46734 17.6568 6.34315C14.5326 3.21895 9.46733 3.21895 6.34313 6.34315ZM7.99999 11C7.4477 11 6.99999 11.4477 6.99999 12C6.99999 12.5523 7.4477 13 7.99999 13L11 13L11 16C11 16.5523 11.4477 17 12 17C12.5523 17 13 16.5523 13 16L13 13L16 13C16.5523 13 17 12.5523 17 12C17 11.4477 16.5523 11 16 11L13 11V8.00002C13 7.44773 12.5523 7.00002 12 7.00002C11.4477 7.00002 11 7.44773 11 8.00002L11 11H7.99999Z" fill="#505050"/>
</svg>
