<svg width="32" height="32" viewBox="0 0 32 32" fill="none" xmlns="http://www.w3.org/2000/svg">
<path d="M29.3333 7.62665L23.2 2.47998L21.48 4.51998L27.6133 9.66665L29.3333 7.62665ZM10.5067 4.51998L8.80001 2.47998L2.66667 7.61331L4.38667 9.65331L10.5067 4.51998ZM16.6667 10.6666H14.6667V18.6666L21 22.4666L22 20.8266L16.6667 17.6666V10.6666ZM16 5.33331C9.37334 5.33331 4.00001 10.7066 4.00001 17.3333C4.00001 23.96 9.36001 29.3333 16 29.3333C22.6267 29.3333 28 23.96 28 17.3333C28 10.7066 22.6267 5.33331 16 5.33331ZM16 26.6666C10.84 26.6666 6.66667 22.4933 6.66667 17.3333C6.66667 12.1733 10.84 7.99998 16 7.99998C21.16 7.99998 25.3333 12.1733 25.3333 17.3333C25.3333 22.4933 21.16 26.6666 16 26.6666Z" fill="#505050"/>
</svg>
