<svg width="32" height="32" viewBox="0 0 32 32" fill="none" xmlns="http://www.w3.org/2000/svg">
<path d="M5.33334 26.6666H26.6667C28.1333 26.6666 29.3333 25.4666 29.3333 23.9999C29.3333 22.5333 28.1333 21.3333 26.6667 21.3333H5.33334C3.86667 21.3333 2.66667 22.5333 2.66667 23.9999C2.66667 25.4666 3.86667 26.6666 5.33334 26.6666ZM5.33334 22.6666H8.00001V25.3333H5.33334V22.6666ZM2.66667 7.99992C2.66667 9.46659 3.86667 10.6666 5.33334 10.6666H26.6667C28.1333 10.6666 29.3333 9.46659 29.3333 7.99992C29.3333 6.53325 28.1333 5.33325 26.6667 5.33325H5.33334C3.86667 5.33325 2.66667 6.53325 2.66667 7.99992ZM8.00001 9.33325H5.33334V6.66659H8.00001V9.33325ZM5.33334 18.6666H26.6667C28.1333 18.6666 29.3333 17.4666 29.3333 15.9999C29.3333 14.5333 28.1333 13.3333 26.6667 13.3333H5.33334C3.86667 13.3333 2.66667 14.5333 2.66667 15.9999C2.66667 17.4666 3.86667 18.6666 5.33334 18.6666ZM5.33334 14.6666H8.00001V17.3333H5.33334V14.6666Z" fill="#505050"/>
</svg>
