<svg width="32" height="32" viewBox="0 0 32 32" fill="none" xmlns="http://www.w3.org/2000/svg">
<path fill-rule="evenodd" clip-rule="evenodd" d="M9.33333 17.3334V14.6667H12V17.3334H9.33333ZM14.6667 14.6667H17.3333V17.3334H14.6667V14.6667ZM20 17.3334V14.6667H22.6667V17.3334H20ZM24 5.33341H25.3333C26.8 5.33341 28 6.53341 28 8.00008V26.6667C28 28.1334 26.8 29.3334 25.3333 29.3334H6.66667C5.18667 29.3334 4 28.1334 4 26.6667L4.01333 8.00008C4.01333 6.53341 5.18667 5.33341 6.66667 5.33341H8V2.66675H10.6667V5.33341H21.3333V2.66675H24V5.33341ZM6.66667 26.6667H25.3333V12.0001H6.66667V26.6667ZM12 20.0001H9.33333V22.6667H12V20.0001ZM14.6667 20.0001H17.3333V22.6667H14.6667V20.0001ZM22.6667 20.0001H20V22.6667H22.6667V20.0001Z" fill="#505050"/>
</svg>
