<svg width="24" height="24" viewBox="0 0 24 24" fill="none" xmlns="http://www.w3.org/2000/svg">
<path d="M7.5 15.625V17.5H9.375L14.9075 11.9675L13.0325 10.0925L7.5 15.625ZM16.3525 10.5225C16.5475 10.3275 16.5475 10.01 16.3525 9.81497L15.185 8.64747C14.99 8.45247 14.6725 8.45247 14.4775 8.64747L13.5625 9.56247L15.4375 11.4375L16.3525 10.5225Z" fill="#505050"/>
<path d="M19 2H14.815C14.405 0.84 13.305 0 12 0C10.695 0 9.595 0.84 9.185 2H5C3.895 2 3 2.895 3 4V20C3 21.105 3.895 22 5 22H19C20.105 22 21 21.105 21 20V4C21 2.895 20.105 2 19 2ZM12 2C12.55 2 13 2.445 13 3C13 3.555 12.55 4 12 4C11.45 4 11 3.555 11 3C11 2.445 11.45 2 12 2ZM19 20H5V4H7V7H17V4H19V20Z" fill="#505050"/>
</svg>
