<svg width="32" height="32" viewBox="0 0 32 32" fill="none" xmlns="http://www.w3.org/2000/svg">
<path d="M10 20.8333V23.3333H12.5L19.8767 15.9566L17.3767 13.4566L10 20.8333ZM21.8033 14.03C22.0633 13.77 22.0633 13.3466 21.8033 13.0866L20.2467 11.53C19.9867 11.27 19.5633 11.27 19.3033 11.53L18.0833 12.75L20.5833 15.25L21.8033 14.03Z" fill="#505050"/>
<path d="M25.3333 2.66667H19.7533C19.2067 1.12 17.74 0 16 0C14.26 0 12.7933 1.12 12.2467 2.66667H6.66667C5.19333 2.66667 4 3.86 4 5.33333V26.6667C4 28.14 5.19333 29.3333 6.66667 29.3333H25.3333C26.8067 29.3333 28 28.14 28 26.6667V5.33333C28 3.86 26.8067 2.66667 25.3333 2.66667ZM16 2.66667C16.7333 2.66667 17.3333 3.26 17.3333 4C17.3333 4.74 16.7333 5.33333 16 5.33333C15.2667 5.33333 14.6667 4.74 14.6667 4C14.6667 3.26 15.2667 2.66667 16 2.66667ZM25.3333 26.6667H6.66667V5.33333H9.33333V9.33333H22.6667V5.33333H25.3333V26.6667Z" fill="#505050"/>
</svg>
