<svg width="32" height="32" viewBox="0 0 32 32" fill="none" xmlns="http://www.w3.org/2000/svg">
<path d="M12.3641 4C11.9627 4 11.6368 4.33244 11.6368 4.74306V12.1732C11.6368 12.5838 11.9627 12.9163 12.3641 12.9163H15.2734V15.8885H4.36398C3.96205 15.8885 3.63665 16.221 3.63665 16.6316V20.3469H0.72733C0.325398 20.3469 0 20.6799 0 21.09V28.5201C0 28.9302 0.325398 29.2632 0.72733 29.2632H8.00013C8.40155 29.2632 8.72746 28.9302 8.72746 28.5201V21.09C8.72746 20.6793 8.40206 20.3469 8.00013 20.3469H5.0908V17.3752H15.2729V20.3469H12.3636C11.9622 20.3469 11.6363 20.6799 11.6363 21.09V28.5201C11.6363 28.9302 11.9622 29.2632 12.3636 29.2632H19.6364C20.0378 29.2632 20.3637 28.9302 20.3637 28.5201V21.09C20.3637 20.6793 20.0378 20.3469 19.6364 20.3469H16.7271V17.3752H26.9092V20.3469H23.9999C23.5984 20.3469 23.2725 20.6799 23.2725 21.09V28.5201C23.2725 28.9302 23.5979 29.2632 23.9999 29.2632H31.2727C31.6746 29.2632 32 28.9302 32 28.5201V21.09C32 20.6793 31.6746 20.3469 31.2727 20.3469H28.3633V16.6316C28.3633 16.2215 28.0379 15.8885 27.636 15.8885H16.7266V12.9163H19.6359C20.0373 12.9163 20.3632 12.5838 20.3632 12.1732V4.74306C20.3632 4.33296 20.0373 4 19.6359 4H12.3641ZM2.90881 22.5756H5.81814V24.0617H2.90881V22.5756ZM14.5456 22.5756H17.4544V24.0617H14.5456V22.5756ZM26.1824 22.5756H29.0917V24.0617H26.1824V22.5756Z" fill="#505050"/>
</svg>
