<svg width="24" height="24" viewBox="0 0 24 24" fill="none" xmlns="http://www.w3.org/2000/svg">
<path d="M9.27308 3C8.97201 3 8.72758 3.24933 8.72758 3.5573V9.12989C8.72758 9.43786 8.97201 9.68719 9.27308 9.68719H11.4551V11.9164H3.27299C2.97154 11.9164 2.72749 12.1657 2.72749 12.4737V15.2602H0.545498C0.244048 15.2602 0 15.5099 0 15.8175V21.3901C0 21.6977 0.244048 21.9474 0.545498 21.9474H6.00009C6.30116 21.9474 6.54559 21.6977 6.54559 21.3901V15.8175C6.54559 15.5095 6.30154 15.2602 6.00009 15.2602H3.8181V13.0314H11.4547V15.2602H9.2727C8.97163 15.2602 8.7272 15.5099 8.7272 15.8175V21.3901C8.7272 21.6977 8.97163 21.9474 9.2727 21.9474H14.7273C15.0284 21.9474 15.2728 21.6977 15.2728 21.3901V15.8175C15.2728 15.5095 15.0284 15.2602 14.7273 15.2602H12.5453V13.0314H20.1819V15.2602H17.9999C17.6988 15.2602 17.4544 15.5099 17.4544 15.8175V21.3901C17.4544 21.6977 17.6985 21.9474 17.9999 21.9474H23.4545C23.756 21.9474 24 21.6977 24 21.3901V15.8175C24 15.5095 23.756 15.2602 23.4545 15.2602H21.2725V12.4737C21.2725 12.1661 21.0285 11.9164 20.727 11.9164H12.5449V9.68719H14.7269C15.028 9.68719 15.2724 9.43786 15.2724 9.12989V3.5573C15.2724 3.24972 15.028 3 14.7269 3H9.27308ZM2.18161 16.9317H4.3636V18.0463H2.18161V16.9317ZM10.9092 16.9317H13.0908V18.0463H10.9092V16.9317ZM19.6368 16.9317H21.8188V18.0463H19.6368V16.9317Z" fill="#505050"/>
</svg>
