<svg width="32" height="32" viewBox="0 0 32 32" fill="none" xmlns="http://www.w3.org/2000/svg">
<path fill-rule="evenodd" clip-rule="evenodd" d="M17.2317 1.87988V25.6873H17.2183V29.5853H15.2113C11.4357 28.8988 7.64159 28.2309 3.87169 27.5671C2.74302 27.3684 1.61652 27.1701 0.493332 26.9718V4.4533C1.91016 4.20844 3.32444 3.96614 4.73721 3.7241C8.26528 3.11966 11.7839 2.51682 15.3094 1.87988H17.2317ZM8.35629 16.7049C8.81679 18.0815 9.35585 19.4307 9.9708 20.7456C10.279 20.7687 10.5864 20.7903 10.8938 20.8119C11.3603 20.8447 11.8266 20.8775 12.2945 20.9151C12.1458 20.6149 11.9972 20.3146 11.8486 20.0142C11.1052 18.512 10.3618 17.0097 9.61847 15.523C10.4897 13.7539 11.3534 11.9892 12.2097 10.229C11.4783 10.2676 10.7483 10.3122 10.0199 10.3628C9.88222 10.6922 9.7403 11.0219 9.59785 11.3529C9.17717 12.3302 8.75191 13.3182 8.41873 14.3411C8.12897 13.4002 7.77029 12.483 7.41208 11.5671C7.27958 11.2283 7.14715 10.8897 7.01829 10.5501L4.88642 10.6705C5.19085 11.3432 5.50422 12.0121 5.8177 12.6813C6.27118 13.6493 6.72489 14.6178 7.15209 15.5988C6.58418 16.6692 6.04006 17.7515 5.49594 18.8338C5.22388 19.3749 4.95183 19.9161 4.6768 20.4557C4.853 20.4624 5.0292 20.4699 5.2054 20.4775C5.73388 20.5001 6.26236 20.5226 6.79083 20.5226C6.9905 20.0155 7.20767 19.5161 7.42487 19.0166C7.7559 18.2553 8.08699 17.4939 8.35629 16.7049ZM18.0434 6.67441V4.96624H29.8267V26.4857H18.0434V24.7775H21.4553V22.3379H18.0434V20.875H21.4553V18.3774H18.0434V16.9948H21.4553V14.4794H18.0434V13.0968H21.4553V10.5769H18.0434V9.19431H21.4553V6.67441H18.0434ZM22.267 24.7953H27.2265V22.3557H22.267V24.7953ZM22.267 20.8928H27.2265V18.373H22.267V20.8928ZM22.267 16.9904H27.2265V14.4749H22.267V16.9904ZM22.267 13.0879H27.2265V10.5724H22.267V13.0879ZM22.267 9.18539H27.2265V6.67441H22.267V9.18539Z" fill="#505050"/>
</svg>
