<svg width="24" height="24" viewBox="0 0 24 24" fill="none" xmlns="http://www.w3.org/2000/svg">
<path fill-rule="evenodd" clip-rule="evenodd" d="M12.9237 1.40991V19.2655H12.9137V22.189H11.4085C8.5769 21.6742 5.73147 21.1732 2.90419 20.6754C2.05755 20.5264 1.21253 20.3776 0.369995 20.2288V3.33997C1.43262 3.15633 2.49333 2.97461 3.55291 2.79308C6.19896 2.33974 8.83795 1.88762 11.4821 1.40991H12.9237ZM6.26721 12.5287C6.61259 13.5612 7.01688 14.573 7.4781 15.5592C7.70923 15.5765 7.93983 15.5927 8.17032 15.6089C8.52025 15.6335 8.86994 15.6581 9.22084 15.6863C9.1094 15.4612 8.99796 15.236 8.88652 15.0108C8.32896 13.8841 7.7714 12.7574 7.21385 11.6422C7.86723 10.3154 8.51505 8.99189 9.15728 7.67173C8.60871 7.70072 8.06124 7.73417 7.51489 7.77208C7.41166 8.01916 7.30522 8.26646 7.19838 8.51467C6.88288 9.24767 6.56392 9.98868 6.31404 10.7558C6.09672 10.0501 5.82771 9.36228 5.55905 8.67533C5.45968 8.42124 5.36036 8.16727 5.26372 7.91257L3.66481 8.00289C3.89313 8.50739 4.12816 9.00909 4.36327 9.51097C4.70338 10.237 5.04366 10.9634 5.36407 11.6991C4.93814 12.5019 4.53005 13.3136 4.12196 14.1253C3.91792 14.5312 3.71387 14.937 3.5076 15.3418C3.63973 15.3468 3.77186 15.3525 3.90399 15.3581C4.30036 15.375 4.69674 15.392 5.09312 15.392C5.24287 15.0116 5.40575 14.6371 5.56865 14.2625C5.81692 13.6915 6.06524 13.1205 6.26721 12.5287ZM13.5325 5.00583V3.7247H22.37V19.8643H13.5325V18.5831H16.0914V16.7534H13.5325V15.6563H16.0914V13.7831H13.5325V12.7461H16.0914V10.8596H13.5325V9.82262H16.0914V7.9327H13.5325V6.89575H16.0914V5.00583H13.5325ZM16.7002 18.5965H20.4199V16.7668H16.7002V18.5965ZM16.7002 15.6697H20.4199V13.7797H16.7002V15.6697ZM16.7002 12.7428H20.4199V10.8562H16.7002V12.7428ZM16.7002 9.81593H20.4199V7.92935H16.7002V9.81593ZM16.7002 6.88906H20.4199V5.00583H16.7002V6.88906Z" fill="#505050"/>
</svg>
