<svg width="24" height="24" viewBox="0 0 24 24" fill="none" xmlns="http://www.w3.org/2000/svg">
<path d="M14.7038 2.70175V4.45614C14.7038 4.84373 14.3878 5.15789 13.998 5.15789H2.70576C2.31596 5.15789 2 4.84373 2 4.45614V2.70175C2 2.31417 2.31596 2 2.70576 2H13.998C14.3878 2 14.7038 2.31417 14.7038 2.70175ZM2 8.31579V10.0702C2 10.4578 2.31596 10.7719 2.70576 10.7719H21.0556C21.4454 10.7719 21.7614 10.4578 21.7614 10.0702V8.31579C21.7614 7.9282 21.4454 7.61404 21.0556 7.61404H2.70576C2.31596 7.61404 2 7.9282 2 8.31579ZM2.70576 22H21.0556C21.4454 22 21.7614 21.6858 21.7614 21.2982V19.5439C21.7614 19.1563 21.4454 18.8421 21.0556 18.8421H2.70576C2.31596 18.8421 2 19.1563 2 19.5439V21.2982C2 21.6858 2.31596 22 2.70576 22ZM13.998 13.2281H2.70576C2.31596 13.2281 2 13.5422 2 13.9298V15.6842C2 16.0718 2.31596 16.386 2.70576 16.386H13.998C14.3878 16.386 14.7038 16.0718 14.7038 15.6842V13.9298C14.7038 13.5422 14.3878 13.2281 13.998 13.2281Z" fill="#505050"/>
</svg>
