<svg width="32" height="32" viewBox="0 0 32 32" fill="none" xmlns="http://www.w3.org/2000/svg">
<path d="M19.605 3.60242V5.9416C19.605 6.45839 19.1837 6.87727 18.664 6.87727H3.60769C3.08795 6.87727 2.66667 6.45839 2.66667 5.9416V3.60242C2.66667 3.08564 3.08795 2.66675 3.60769 2.66675H18.664C19.1837 2.66675 19.605 3.08564 19.605 3.60242ZM2.66667 11.0878V13.427C2.66667 13.9438 3.08795 14.3627 3.60769 14.3627H28.0742C28.5939 14.3627 29.0152 13.9438 29.0152 13.427V11.0878C29.0152 10.571 28.5939 10.1521 28.0742 10.1521H3.60769C3.08795 10.1521 2.66667 10.571 2.66667 11.0878ZM3.60769 29.3334H28.0742C28.5939 29.3334 29.0152 28.9145 29.0152 28.3977V26.0586C29.0152 25.5418 28.5939 25.1229 28.0742 25.1229H3.60769C3.08795 25.1229 2.66667 25.5418 2.66667 26.0586V28.3977C2.66667 28.9145 3.08795 29.3334 3.60769 29.3334ZM18.664 17.6375H3.60769C3.08795 17.6375 2.66667 18.0564 2.66667 18.5732V20.9124C2.66667 21.4291 3.08795 21.848 3.60769 21.848H18.664C19.1837 21.848 19.605 21.4291 19.605 20.9124V18.5732C19.605 18.0564 19.1837 17.6375 18.664 17.6375Z" fill="#505050"/>
</svg>
