<svg width="32" height="32" viewBox="0 0 32 32" fill="none" xmlns="http://www.w3.org/2000/svg">
<path d="M26.6667 2.66675H5.33332C3.85999 2.66675 2.66666 3.86008 2.66666 5.33341V26.6667C2.66666 28.1401 3.85999 29.3334 5.33332 29.3334H26.6667C28.14 29.3334 29.3333 28.1401 29.3333 26.6667V5.33341C29.3333 3.86008 28.14 2.66675 26.6667 2.66675ZM10.6667 26.6667H5.33332V21.3334H10.6667V26.6667ZM10.6667 18.6667H5.33332V13.3334H10.6667V18.6667ZM10.6667 10.6667H5.33332V5.33341H10.6667V10.6667ZM18.6667 26.6667H13.3333V21.3334H18.6667V26.6667ZM18.6667 18.6667H13.3333V13.3334H18.6667V18.6667ZM18.6667 10.6667H13.3333V5.33341H18.6667V10.6667ZM26.6667 26.6667H21.3333V21.3334H26.6667V26.6667ZM26.6667 18.6667H21.3333V13.3334H26.6667V18.6667ZM26.6667 10.6667H21.3333V5.33341H26.6667V10.6667Z" fill="#505050"/>
<rect opacity="0.4" x="5.33334" y="5.33325" width="5.33333" height="5.33333" fill="#505050"/>
<rect opacity="0.4" x="5.33334" y="13.3333" width="5.33333" height="5.33333" fill="#505050"/>
<rect opacity="0.4" x="5.33334" y="21.3333" width="5.33333" height="5.33333" fill="#505050"/>
<rect opacity="0.4" x="13.3333" y="5.33325" width="5.33333" height="5.33333" fill="#505050"/>
<rect opacity="0.4" x="21.3333" y="5.33325" width="5.33333" height="5.33333" fill="#505050"/>
</svg>
