<svg width="32" height="32" viewBox="0 0 32 32" fill="none" xmlns="http://www.w3.org/2000/svg">
<path d="M25.3333 4H6.66667C5.2 4 4 5.2 4 6.66667V16C4 17.4667 5.2 18.6667 6.66667 18.6667H25.3333C26.8 18.6667 28 17.4667 28 16V6.66667C28 5.2 26.8 4 25.3333 4ZM25.3333 12H20C20 14.16 18.16 16 16 16C13.84 16 12 14.16 12 12H6.66667V6.66667H25.3333V12ZM20 21.3333H28V25.3333C28 26.8 26.8 28 25.3333 28H6.66667C5.2 28 4 26.8 4 25.3333V21.3333H12C12 23.5467 13.7867 25.3333 16 25.3333C18.2133 25.3333 20 23.5467 20 21.3333Z" fill="#505050"/>
</svg>
