<svg width="24" height="24" viewBox="0 0 24 24" fill="none" xmlns="http://www.w3.org/2000/svg">
<path d="M15.4399 1.0475C15.4399 0.687507 15.6528 0.600989 15.9132 0.855572L20.1252 4.97399C20.3856 5.22857 20.2975 5.43674 19.9293 5.43674H16.1092C15.7409 5.43674 15.4395 5.14205 15.4395 4.78205V1.0475H15.4399ZM12.2409 9.51074H11.751V12.6572H12.2311C12.6237 12.6572 12.9231 12.5303 13.1282 12.2773C13.3333 12.0234 13.4361 11.6618 13.4361 11.1911V10.9709C13.4361 10.4919 13.3343 10.1286 13.1316 9.88167C12.9282 9.63405 12.6315 9.51074 12.2409 9.51074ZM8.8819 9.74841C8.8168 9.67615 8.73305 9.61847 8.63032 9.57538C8.52759 9.53228 8.40553 9.51074 8.26448 9.51074H7.37718V10.9902H8.26448C8.40587 10.9902 8.52759 10.9729 8.63032 10.9385C8.73305 10.904 8.8168 10.8559 8.8819 10.7943C8.947 10.7326 8.9948 10.6587 9.02599 10.5725C9.05719 10.4863 9.07245 10.3925 9.07245 10.2907C9.07245 10.189 9.05719 10.0915 9.02599 9.99769C8.9948 9.90388 8.947 9.82101 8.8819 9.74841ZM20.3304 6.22171H15.3059C14.9377 6.22171 14.6363 5.92702 14.6363 5.56702V0.65469C14.6363 0.294694 14.3349 0 13.9667 0H3.66963C3.30142 0 3 0.294694 3 0.65469V22.3453C3 22.7053 3.30142 23 3.66963 23H20.3307C20.6989 23 21 22.7053 21 22.3453V6.8764C20.9997 6.5164 20.6986 6.22171 20.3304 6.22171ZM9.95297 10.9027C9.87125 11.086 9.75259 11.2424 9.59696 11.372C9.44133 11.5017 9.25147 11.6014 9.02735 11.6714C8.80324 11.7413 8.54895 11.7765 8.26414 11.7765H7.37684V13.4369H6.38341V8.72378H8.26414C8.54895 8.72378 8.80324 8.76257 9.02735 8.84047C9.25147 8.91837 9.44133 9.02676 9.59696 9.16566C9.75259 9.30455 9.87125 9.46996 9.95297 9.6609C10.0347 9.85184 10.0754 10.0597 10.0754 10.2841C10.0754 10.5128 10.0347 10.7193 9.95297 10.9027ZM14.4427 11.1907C14.4427 11.5275 14.3891 11.8335 14.282 12.1086C14.1749 12.3837 14.0236 12.6201 13.8283 12.8177C13.6331 13.0152 13.3994 13.168 13.1282 13.2755C12.8566 13.3835 12.5572 13.4372 12.2311 13.4372H10.7575V8.72378H12.2409C12.5654 8.72378 12.8627 8.77848 13.1333 8.88721C13.4039 8.99594 13.6354 9.14942 13.8287 9.34698C14.0219 9.54455 14.1725 9.78123 14.2806 10.0577C14.3888 10.3342 14.443 10.6405 14.443 10.9769V11.1907H14.4427ZM18.3035 9.51074H16.158V10.728H18.0652V11.5113H16.158V13.4372H15.1646V8.72378H18.3035V9.51074Z" fill="#505050"/>
</svg>
