<svg width="32" height="32" viewBox="0 0 32 32" fill="none" xmlns="http://www.w3.org/2000/svg">
<path d="M20.5865 1.39667C20.5865 0.916677 20.8704 0.801318 21.2176 1.14076L26.8337 6.63198C27.1808 6.97142 27.0633 7.24899 26.5724 7.24899H21.4789C20.9879 7.24899 20.586 6.85607 20.586 6.37607V1.39667H20.5865ZM16.3212 12.681H15.668V16.8763H16.3081C16.8316 16.8763 17.2308 16.707 17.5043 16.3698C17.7778 16.0312 17.9147 15.549 17.9147 14.9214V14.6279C17.9147 13.9893 17.7791 13.5048 17.5088 13.1756C17.2375 12.8454 16.842 12.681 16.3212 12.681ZM11.8425 12.9979C11.7557 12.9015 11.6441 12.8246 11.5071 12.7672C11.3701 12.7097 11.2074 12.681 11.0193 12.681H9.83624V14.6536H11.0193C11.2078 14.6536 11.3701 14.6306 11.5071 14.5846C11.6441 14.5386 11.7557 14.4746 11.8425 14.3923C11.9293 14.3101 11.9931 14.2116 12.0347 14.0967C12.0763 13.9817 12.0966 13.8567 12.0966 13.721C12.0966 13.5853 12.0763 13.4553 12.0347 13.3303C11.9931 13.2052 11.9293 13.0947 11.8425 12.9979ZM27.1072 8.29561H20.4079C19.917 8.29561 19.5151 7.90269 19.5151 7.42269V0.87292C19.5151 0.392925 19.1132 0 18.6222 0H4.89284C4.40189 0 4 0.392925 4 0.87292V29.7937C4 30.2737 4.40189 30.6667 4.89284 30.6667H27.1076C27.5986 30.6667 28 30.2737 28 29.7937V9.16853C27.9995 8.68853 27.5981 8.29561 27.1072 8.29561ZM13.2706 14.5369C13.1617 14.7813 13.0034 14.9899 12.7959 15.1627C12.5884 15.3355 12.3353 15.4686 12.0365 15.5618C11.7376 15.6551 11.3986 15.7019 11.0189 15.7019H9.83579V17.9158H8.51122V11.6317H11.0189C11.3986 11.6317 11.7376 11.6834 12.0365 11.7873C12.3353 11.8912 12.5884 12.0357 12.7959 12.2209C13.0034 12.4061 13.1617 12.6266 13.2706 12.8812C13.3796 13.1358 13.4338 13.4129 13.4338 13.7121C13.4338 14.0171 13.3796 14.2925 13.2706 14.5369ZM19.2569 14.921C19.2569 15.37 19.1855 15.778 19.0427 16.1448C18.8998 16.5117 18.6982 16.8268 18.4378 17.0902C18.1774 17.3536 17.8659 17.5574 17.5043 17.7006C17.1422 17.8447 16.743 17.9163 16.3081 17.9163H14.3434V11.6317H16.3212C16.7538 11.6317 17.1503 11.7046 17.511 11.8496C17.8718 11.9946 18.1806 12.1992 18.4382 12.4626C18.6959 12.7261 18.8966 13.0416 19.0409 13.4103C19.1851 13.7789 19.2574 14.1873 19.2574 14.6359V14.921H19.2569ZM24.4047 12.681H21.544V14.304H24.0869V15.3484H21.544V17.9163H20.2194V11.6317H24.4047V12.681Z" fill="#505050"/>
</svg>
