<svg width="32" height="32" viewBox="0 0 32 32" fill="none" xmlns="http://www.w3.org/2000/svg">
<path d="M25.3333 10.6667H6.66667C4.45333 10.6667 2.66667 12.4533 2.66667 14.6667V22.6667H8V28H24V22.6667H29.3333V14.6667C29.3333 12.4533 27.5467 10.6667 25.3333 10.6667ZM21.3333 25.3333H10.6667V18.6667H21.3333V25.3333ZM25.3333 16C24.6 16 24 15.4 24 14.6667C24 13.9333 24.6 13.3333 25.3333 13.3333C26.0667 13.3333 26.6667 13.9333 26.6667 14.6667C26.6667 15.4 26.0667 16 25.3333 16ZM24 4H8V9.33333H24V4Z" fill="#505050"/>
</svg>
