<svg width="24" height="24" viewBox="0 0 24 24" fill="none" xmlns="http://www.w3.org/2000/svg">
<g clip-path="url(#clip0)">
<path d="M4.91356 4.91344L2.2561 2.25598L2.2561 9.34253L9.34265 9.34253L6.6852 6.68507C9.62169 3.74858 14.3785 3.74858 17.315 6.68507C18.2141 7.58418 18.8298 8.65159 19.1841 9.78544L21.7707 9.78544C21.3588 8.00051 20.4774 6.30417 19.0867 4.91344C15.1713 0.998118 8.82888 0.998118 4.91356 4.91344ZM17.315 17.3149C14.3785 20.2514 9.62168 20.2514 6.6852 17.3149C5.78609 16.4158 5.17045 15.3484 4.81612 14.2145L2.22953 14.2145C2.64143 15.9995 3.52282 17.6958 4.91356 19.0865C8.82888 23.0019 15.1713 23.0018 19.0867 19.0865L21.7441 21.744L21.7441 14.6574L14.6576 14.6574L17.315 17.3149Z" fill="#505050"/>
</g>
<defs>
<clipPath id="clip0">
<rect width="24" height="24" fill="white"/>
</clipPath>
</defs>
</svg>
