<svg width="32" height="32" viewBox="0 0 32 32" fill="none" xmlns="http://www.w3.org/2000/svg">
<g clip-path="url(#clip0)">
<path d="M6.55142 6.55133L3.00815 3.00806V12.4568H12.4569L8.91361 8.91351C12.8289 4.99819 19.1714 4.99819 23.0867 8.91351C24.2855 10.1123 25.1064 11.5355 25.5788 13.0473L29.0276 13.0473C28.4784 10.6674 27.3032 8.40564 25.4489 6.55133C20.2285 1.33091 11.7718 1.33091 6.55142 6.55133ZM23.0867 23.0866C19.1714 27.0019 12.8289 27.0019 8.91361 23.0866C7.7148 21.8878 6.89394 20.4646 6.4215 18.9528L2.97272 18.9528C3.52192 21.3327 4.69711 23.5945 6.55142 25.4488C11.7718 30.6692 20.2285 30.6692 25.4489 25.4488L28.9922 28.9921V19.5433H19.5434L23.0867 23.0866Z" fill="#505050"/>
</g>
<defs>
<clipPath id="clip0">
<rect width="32" height="32" fill="white"/>
</clipPath>
</defs>
</svg>
