<svg width="32" height="32" viewBox="0 0 32 32" fill="none" xmlns="http://www.w3.org/2000/svg">
<path d="M25.9067 17.3001C25.9601 16.8734 26.0001 16.4401 26.0001 16.0001C26.0001 15.5601 25.9601 15.1267 25.9067 14.7001L28.7267 12.4934C28.9801 12.2934 29.0534 11.9334 28.8867 11.6401L26.2201 7.02008C26.0534 6.73341 25.7067 6.61342 25.4067 6.73342L22.0867 8.07341C21.4001 7.54675 20.6467 7.10008 19.8334 6.76008L19.3334 3.22675C19.2734 2.91341 19.0001 2.66675 18.6667 2.66675H13.3334C13.0001 2.66675 12.7267 2.91341 12.6734 3.22675L12.1734 6.76008C11.3601 7.10008 10.6067 7.54008 9.92008 8.07341L6.60008 6.73342C6.30008 6.62008 5.95341 6.73341 5.78674 7.02008L3.12008 11.6401C2.95341 11.9267 3.02674 12.2867 3.28008 12.4934L6.09341 14.7001C6.04008 15.1267 6.00008 15.5601 6.00008 16.0001C6.00008 16.4401 6.04008 16.8734 6.09341 17.3001L3.28008 19.5067C3.02674 19.7067 2.95341 20.0667 3.12008 20.3601L5.78674 24.9801C5.95341 25.2667 6.30008 25.3867 6.60008 25.2667L9.92008 23.9267C10.6067 24.4534 11.3601 24.9001 12.1734 25.2401L12.6734 28.7734C12.7267 29.0867 13.0001 29.3334 13.3334 29.3334H18.6667C19.0001 29.3334 19.2734 29.0867 19.3267 28.7734L19.8267 25.2401C20.6401 24.9001 21.3934 24.4601 22.0801 23.9267L25.4001 25.2667C25.7001 25.3801 26.0467 25.2667 26.2134 24.9801L28.8801 20.3601C29.0467 20.0734 28.9734 19.7134 28.7201 19.5067L25.9067 17.3001V17.3001ZM16.0001 20.6667C13.4201 20.6667 11.3334 18.5801 11.3334 16.0001C11.3334 13.4201 13.4201 11.3334 16.0001 11.3334C18.5801 11.3334 20.6667 13.4201 20.6667 16.0001C20.6667 18.5801 18.5801 20.6667 16.0001 20.6667Z" fill="#505050"/>
</svg>
