<svg width="32" height="32" viewBox="0 0 32 32" fill="none" xmlns="http://www.w3.org/2000/svg">
<path d="M1.33333 12H4V9.33333H1.33333V12ZM1.33333 17.3333H4V14.6667H1.33333V17.3333ZM1.33333 6.66667H4V4C2.53333 4 1.33333 5.2 1.33333 6.66667ZM12 28H14.6667V25.3333H12V28ZM1.33333 22.6667H4V20H1.33333V22.6667ZM4 28V25.3333H1.33333C1.33333 26.8 2.53333 28 4 28ZM28 4H17.3333V12H30.6667V6.66667C30.6667 5.2 29.4667 4 28 4ZM28 22.6667H30.6667V20H28V22.6667ZM12 6.66667H14.6667V4H12V6.66667ZM6.66667 28H9.33333V25.3333H6.66667V28ZM6.66667 6.66667H9.33333V4H6.66667V6.66667ZM28 28C29.4667 28 30.6667 26.8 30.6667 25.3333H28V28ZM28 17.3333H30.6667V14.6667H28V17.3333ZM17.3333 28H20V25.3333H17.3333V28ZM22.6667 28H25.3333V25.3333H22.6667V28Z" fill="#505050"/>
</svg>
