<svg width="24" height="24" viewBox="0 0 24 24" fill="none" xmlns="http://www.w3.org/2000/svg">
<path fill-rule="evenodd" clip-rule="evenodd" d="M10.5664 22.1115C13.5255 22.6857 16.0872 20.4332 16.0872 17.5624C16.0872 16.0607 15.3363 14.6916 14.188 13.8524V3.73831C14.188 2.23666 12.9955 1 11.4497 1C9.94802 1 8.71137 2.23666 8.71137 3.73831V13.8524C7.34221 14.8682 6.54721 16.5907 6.94471 18.534C7.29804 20.3007 8.75553 21.7582 10.5664 22.1115ZM9.28553 14.6916L9.68303 14.3824V3.78248C9.68303 2.81082 10.478 2.05999 11.4055 2.05999C12.3772 2.05999 13.1722 2.85499 13.1722 3.78248V14.3824L13.5697 14.6916C14.4972 15.3541 15.0272 16.4582 15.0272 17.6066C15.0272 18.5782 14.6297 19.5057 13.9672 20.1682C13.2605 20.8307 12.3772 21.2282 11.4055 21.2282C9.59469 21.2282 8.18137 19.9474 7.8722 18.3574C7.65137 16.8999 8.18137 15.4866 9.28553 14.6916ZM11.4497 20.1682C12.1563 20.1682 12.8188 19.9032 13.3047 19.4174C13.7905 18.9315 14.0555 18.269 14.0555 17.5624C14.0555 16.1264 13.0633 15.4783 12.4785 15.0962C12.3438 15.0082 12.2307 14.9344 12.1563 14.8682V5.15896H10.6988V14.8682C10.6383 14.9374 10.5153 15.02 10.3597 15.1245C9.72045 15.5539 8.53279 16.3517 8.88803 18.0924C9.10886 19.2407 10.1247 20.1682 11.4497 20.1682ZM15.3363 4.00332H17.8537C18.1629 4.00332 18.3837 4.22415 18.3396 4.53332C18.3396 4.79831 18.1187 5.01915 17.8537 5.01915H15.3363V4.00332ZM17.3681 7.18331C17.3681 6.91831 17.1473 6.69748 16.8823 6.69748H15.3806V7.7133H16.8823C17.1473 7.66914 17.3681 7.44831 17.3681 7.18331ZM17.8981 9.34741C18.1631 9.34741 18.3839 9.56824 18.3839 9.83324C18.3839 10.0982 18.1631 10.3632 17.8981 10.3632H15.3806V9.34741H17.8981Z" fill="#505050"/>
</svg>
