<svg width="32" height="32" viewBox="0 0 32 32" fill="none" xmlns="http://www.w3.org/2000/svg">
<path fill-rule="evenodd" clip-rule="evenodd" d="M14.0885 29.4819C18.034 30.2475 21.4495 27.2442 21.4495 23.4164C21.4495 21.4142 20.4484 19.5887 18.9173 18.4698V4.98434C18.9173 2.98213 17.3273 1.33325 15.2662 1.33325C13.264 1.33325 11.6152 2.98213 11.6152 4.98434V18.4698C9.78961 19.8242 8.72961 22.1209 9.25961 24.712C9.73072 27.0675 11.674 29.0108 14.0885 29.4819ZM12.3807 19.5887L12.9107 19.1765V5.04323C12.9107 3.74768 13.9707 2.74658 15.2074 2.74658C16.5029 2.74658 17.5629 3.80657 17.5629 5.04323V19.1765L18.0929 19.5887C19.3295 20.472 20.0362 21.9442 20.0362 23.4753C20.0362 24.7709 19.5062 26.0075 18.6229 26.8909C17.6807 27.7742 16.5029 28.3042 15.2074 28.3042C12.7929 28.3042 10.9085 26.5964 10.4963 24.4764C10.2018 22.5331 10.9085 20.6487 12.3807 19.5887ZM15.2662 26.8908C16.2084 26.8908 17.0918 26.5375 17.7395 25.8897C18.3873 25.242 18.7407 24.3586 18.7407 23.4164C18.7407 21.5017 17.4178 20.6376 16.638 20.1282C16.4584 20.0109 16.3076 19.9124 16.2084 19.8242V6.87853H14.2651V19.8242C14.1845 19.9164 14.0204 20.0266 13.813 20.1659C12.9606 20.7385 11.377 21.8022 11.8507 24.1231C12.1451 25.6542 13.4996 26.8908 15.2662 26.8908ZM20.4483 5.33771H23.805C24.2172 5.33771 24.5116 5.63215 24.4528 6.04437C24.4528 6.3977 24.1583 6.69215 23.805 6.69215H20.4483V5.33771ZM23.1575 9.57767C23.1575 9.22434 22.863 8.9299 22.5097 8.9299H20.5075V10.2843H22.5097C22.863 10.2254 23.1575 9.931 23.1575 9.57767ZM23.8641 12.4631C24.2175 12.4631 24.5119 12.7576 24.5119 13.1109C24.5119 13.4642 24.2175 13.8176 23.8641 13.8176H20.5075V12.4631H23.8641Z" fill="#505050"/>
</svg>
